<?xml version="1.0" standalone="no"?>
<!DOCTYPE svg PUBLIC "-//W3C//DTD SVG 20010904//EN"
 "http://www.w3.org/TR/2001/REC-SVG-20010904/DTD/svg10.dtd">
<svg version="1.0" xmlns="http://www.w3.org/2000/svg"
 width="192.000000pt" height="192.000000pt" viewBox="0 0 192.000000 192.000000"
 preserveAspectRatio="xMidYMid meet">
<metadata>
Created by potrace 1.14, written by Peter Selinger 2001-2017
</metadata>
<g transform="translate(0.000000,192.000000) scale(0.100000,-0.100000)"
fill="#000000" stroke="none">
<path d="M826 982 c-64 -192 -116 -351 -116 -354 0 -2 13 -5 29 -5 l29 0 101
306 c56 168 102 311 102 316 1 6 5 15 9 20 5 6 11 23 14 38 4 24 2 27 -24 27
l-28 0 -116 -348z"/>
<path d="M1140 1327 c0 -2 -52 -158 -115 -346 -63 -189 -115 -346 -115 -350 0
-5 12 -8 28 -7 26 1 29 7 108 241 45 132 84 247 87 255 3 8 18 53 33 100 15
47 29 91 32 98 3 8 -6 12 -27 12 -17 0 -31 -1 -31 -3z"/>
<path d="M230 1303 c-139 -35 -219 -149 -224 -318 -5 -150 53 -263 163 -320
25 -12 134 -32 152 -27 4 0 18 3 32 6 49 9 100 40 119 73 11 18 21 33 23 33 2
0 2 -17 0 -37 -4 -53 3 -63 41 -63 l33 0 -2 158 -2 157 -105 1 c-58 0 -110 -1
-115 -3 -6 -2 -12 -17 -13 -33 l-2 -29 77 -3 78 -3 -4 -30 c-14 -126 -151
-197 -265 -138 -135 70 -164 343 -48 462 70 73 195 79 268 14 22 -20 54 -82
54 -106 0 -13 11 -14 77 -8 20 2 -3 80 -39 133 -21 31 -91 75 -128 82 -14 2
-25 5 -25 6 0 8 -106 3 -145 -7z"/>
<path d="M1534 1310 c-18 -4 -40 -11 -50 -15 -11 -5 -21 -9 -24 -9 -22 -4 -82
-53 -104 -85 -46 -66 -64 -128 -64 -221 0 -187 86 -304 245 -333 80 -15 144
-8 211 24 65 32 95 61 125 122 89 178 31 419 -118 487 -68 31 -158 43 -221 30z
m155 -95 c49 -25 93 -91 107 -159 9 -43 6 -133 -6 -176 -28 -108 -93 -160
-196 -157 -80 3 -125 32 -161 106 -24 47 -27 68 -27 145 -1 109 19 166 72 213
55 49 147 62 211 28z"/>
</g>
</svg>
